<?xml version="1.0" encoding="UTF-8" standalone="no"?>
<svg
   role="img"
   aria-label="Visit CodeIgniter.com official website!"
   viewBox="0 0 135.13719 465.11225"
   height="40.929878"
   version="1.1"
   id="svg4"
   width="135.13719"
   xmlns="http://www.w3.org/2000/svg"
   xmlns:svg="http://www.w3.org/2000/svg">
  <defs
     id="defs8">
    <rect
       x="951.36041"
       y="103.15567"
       width="89.250671"
       height="22.63604"
       id="rect343" />
    <rect
       x="951.36041"
       y="103.15567"
       width="89.250671"
       height="22.63604"
       id="rect343-3" />
    <rect
       x="951.36041"
       y="103.15567"
       width="89.250671"
       height="22.63604"
       id="rect343-3-2" />
  </defs>
  <g
     id="g1298"
     transform="translate(-189.68261,-23.385532)">
    <path
       id="path2-3"
       d="m -322.46959,79.011786 c 12.70916,21.185654 -4.23067,49.017154 -16.53884,64.845134 -12.33045,15.82798 -30.14743,27.62175 -44.67218,41.43363 -15.64976,14.55817 -29.99127,30.55461 -42.8675,47.66351 -27.83541,34.0062 -38.77124,78.85841 -29.71555,121.85348 12.41956,41.4356 46.87284,72.5668 89.34439,80.6423 h 0.22249 l -0.14833,-0.1237 c -22.86758,-10.1026 -38.38168,-31.8576 -40.42004,-56.7858 1.33662,-25.6411 14.857,-49.08617 36.36568,-63.0651 -3.53094,8.61015 -2.65132,18.4041 2.24967,26.2792 5.58045,7.797 15.17243,11.5414 24.57341,9.592 13.38862,-3.7648 21.2184,-17.6506 17.45355,-31.05046 -1.33663,-4.68937 -4.01027,-8.95518 -7.66374,-12.1631 -15.14851,-12.31931 -22.75602,-31.67789 -20.04933,-51.02566 2.5953,-10.24754 8.28296,-19.50666 16.29163,-26.50171 -6.01485,16.03961 10.94007,31.86776 22.32373,39.65367 20.20545,12.11881 39.64537,25.42938 58.26915,39.87617 20.35025,16.0396 31.45315,41.16189 29.71553,66.84749 -4.57798,27.3343 -23.90534,49.878 -50.25931,58.3433 52.71907,-11.7288 107.07228,-53.6007 108.10817,-113.00298 -1.03589,-47.52848 -29.41817,-90.16572 -72.7808,-109.59147 h -1.92829 c 0.95792,2.32796 1.42408,4.81389 1.33497,7.34235 -0.0249,0.29691 0.036,0.59352 0,0.88999 -3.29703,13.51114 -16.91262,21.83833 -30.45718,18.5413 -5.41337,-1.33664 -10.24532,-4.36288 -13.72057,-8.7515 -17.37624,-22.27723 -0.0147,-47.63307 2.89244,-72.13803 1.78218,-31.33293 -12.5271,-61.292124 -37.92315,-79.604014 z"
       style="fill:#dd4814;fill-opacity:1;stroke-width:1.11386" />
    <path
       id="path2-6"
       d="m 525.3671,333.33714 v 33.6492 c -2.0456,-3.4565 -4.8651,-6.3829 -8.4626,-8.7813 -3.5975,-2.4689 -7.7238,-3.7071 -12.3795,-3.7071 -3.668,0 -7.0531,0.7797 -10.1568,2.3316 -3.0332,1.4814 -5.677,3.5295 -7.9342,6.1393 -2.1868,2.61 -3.922,5.6737 -5.1917,9.2007 -1.2697,3.4565 -1.9039,7.1243 -1.9039,11.0039 0,3.7387 0.6342,7.3379 1.9039,10.7943 1.3403,3.3859 3.1742,6.3811 5.502,8.991 2.3278,2.61 5.1172,4.7267 8.362,6.3491 3.2448,1.5519 6.7754,2.3316 10.5846,2.3316 4.0207,0 7.8943,-1.0625 11.6329,-3.1787 3.7386,-2.1162 6.7037,-4.9657 8.8904,-8.5633 v 5.393 c 0,1.5519 0.6342,2.8888 1.9039,4.0174 1.2697,1.0581 2.7522,1.5936 4.4452,1.5936 0.6348,0 1.4832,-0.1071 2.5413,-0.3187 v -6.3491 c -1.693,0 -2.5413,-0.9856 -2.5413,-2.9607 v -67.9358 z m 244.737,0 v 14.0737 h 14.1827 v -14.0737 z m -390.4385,1.6942 c -5.6432,0 -10.6865,1.1312 -15.1305,3.3884 -4.444,2.1868 -8.1804,5.0447 -11.2136,8.5717 -3.0332,3.527 -5.3641,7.5462 -6.9865,12.0607 -1.5518,4.4439 -2.3232,8.9216 -2.3232,13.4361 0,4.7967 0.8483,9.5271 2.5413,14.1827 1.7635,4.5851 4.1931,8.7114 7.2968,12.3794 3.1038,3.5975 6.8101,6.5241 11.113,8.7814 4.3029,2.2572 9.0249,3.38 14.1743,3.38 2.8921,0 5.8186,-0.3815 8.7813,-1.1574 3.0332,-0.776 5.8912,-1.9071 8.5717,-3.3884 2.6805,-1.4814 5.1185,-3.2768 7.3052,-5.393 2.1867,-2.1867 3.875,-4.6933 5.0742,-7.5149 l -6.131,-3.1787 c -1.1992,2.4689 -2.6817,4.5856 -4.4452,6.3491 -1.7635,1.6929 -3.7045,3.1454 -5.8207,4.3445 -2.0456,1.1287 -4.2008,1.9686 -6.4581,2.533 -2.1867,0.4937 -4.3335,0.7464 -6.4497,0.7464 -4.0207,0 -7.7655,-0.8484 -11.222,-2.5413 -3.3859,-1.7635 -6.3426,-4.0944 -8.882,-6.9865 -2.4689,-2.9627 -4.4484,-6.3477 -5.9297,-10.1569 -1.4108,-3.8091 -2.1136,-7.7898 -2.1136,-11.9516 0,-3.8092 0.5957,-7.554 1.7949,-11.222 1.1992,-3.7385 2.9645,-7.0851 5.2923,-10.0477 2.3983,-2.9627 5.3249,-5.3622 8.7813,-7.1962 3.4565,-1.8341 7.4456,-2.751 11.9601,-2.751 2.0457,0 4.1239,0.2443 6.24,0.7381 2.1162,0.4232 4.1643,1.1645 6.1394,2.2226 1.9751,1.0581 3.8091,2.4335 5.502,4.1265 1.7635,1.6929 3.246,3.7711 4.4452,6.24 l 5.8207,-3.5897 c -2.2573,-4.8672 -5.7879,-8.8179 -10.5846,-11.8511 -4.7262,-3.0332 -10.4421,-4.5542 -17.1433,-4.5542 z m 231.20013,0.4277 v 75.1237 h 14.602 v -75.1237 z m 189.39857,1.6859 v 17.9904 h -7.3052 v 10.9032 h 7.3052 v 31.846 c 0,2.4689 0.3815,4.5856 1.1574,6.3491 0.7759,1.6929 1.8,3.0985 3.0697,4.2271 1.3403,1.0581 2.8613,1.8379 4.5542,2.3316 1.7635,0.4938 3.6275,0.7381 5.6026,0.7381 3.0333,0 5.9297,-0.42 8.6807,-1.2665 2.7511,-0.8464 5.082,-1.6948 6.9865,-2.5412 l -2.86,-11.2137 c -0.8464,0.3527 -1.9776,0.7727 -3.3884,1.2665 -1.4108,0.4938 -2.8548,0.7465 -4.3362,0.7465 -1.4813,0 -2.7496,-0.39 -3.8077,-1.1659 -0.9876,-0.8465 -1.4845,-2.2604 -1.4845,-4.2355 v -27.0821 h 11.6413 v -10.9032 h -11.6413 v -17.9904 z m -138.61437,17.0427 c -3.8092,0 -7.3013,0.7329 -10.4756,2.2142 -3.1743,1.4813 -5.8866,3.5294 -8.1439,6.1393 -2.2573,2.6099 -4.0226,5.6436 -5.2923,9.1 -1.2697,3.4565 -1.9039,7.1929 -1.9039,11.2136 0,3.8092 0.5957,7.4084 1.7949,10.7943 1.1992,3.3859 2.8959,6.3894 5.0826,8.9994 2.2573,2.5394 4.901,4.5491 7.9342,6.0304 3.0332,1.4813 6.4183,2.2226 10.1569,2.2226 3.8091,0 7.3698,-0.8484 10.6852,-2.5413 3.3154,-1.7635 5.8905,-4.2316 7.7246,-7.4059 v 6.9781 c 0,2.6806 -0.4585,5.0114 -1.3755,6.9865 -0.8465,1.9751 -2.0462,3.5949 -3.5981,4.8646 -1.5519,1.2697 -3.3473,2.2251 -5.393,2.86 -1.975,0.5643 -4.0533,0.8471 -6.24,0.8471 -3.5975,0 -7.021,-0.7413 -10.2658,-2.2226 -3.1743,-1.4813 -5.8181,-3.5294 -7.9343,-6.1394 l -7.7246,7.5149 c 2.9627,3.668 6.4849,6.526 10.5762,8.5716 4.1619,1.9752 9.2821,2.9607 15.3485,2.9607 4.444,0 8.5318,-0.5957 12.2704,-1.7948 3.8091,-1.1992 7.057,-2.9344 9.7375,-5.1917 2.751,-2.2573 4.89777,-5.0081 6.44967,-8.2529 1.5519,-3.2449 2.3316,-6.9127 2.3316,-11.004 v -52.797 h -12.37937 v 9.7374 c -2.1162,-3.2448 -4.7985,-5.8199 -8.0433,-7.7245 -3.2448,-1.9751 -7.0197,-2.9606 -11.3226,-2.9606 z m 79.35917,0 c -4.8673,0 -9.2378,0.9855 -13.1175,2.9606 -3.8797,1.9751 -6.8447,4.7259 -8.8904,8.2529 v -10.2658 H 706.194 v 55.4474 h 14.1827 v -32.3828 c 0.4938,-1.693 1.2651,-3.2441 2.3232,-4.6549 1.0581,-1.4108 2.2278,-2.6105 3.4975,-3.5981 1.3402,-1.0581 2.7458,-1.868 4.2271,-2.4323 1.4813,-0.5643 2.9338,-0.847 4.3445,-0.847 2.7511,0 4.8979,1.024 6.4498,3.0696 1.5518,2.0457 2.3316,5.2935 2.3316,9.7375 v 31.108 h 14.1743 v -34.6054 c 0,-2.6805 -0.2443,-5.3243 -0.7381,-7.9343 -0.4232,-2.6099 -1.2331,-4.9324 -2.4323,-6.9781 -1.1992,-2.0455 -2.8959,-3.7037 -5.0826,-4.9734 -2.1867,-1.2698 -5.0062,-1.9039 -8.4626,-1.9039 z m 121.1523,0 c -4.5145,0 -8.6107,0.7713 -12.2788,2.3232 -3.5975,1.5519 -6.6612,3.6686 -9.2007,6.349 -2.5394,2.61 -4.4804,5.6821 -5.8206,9.2091 -1.3403,3.4564 -2.0129,7.1543 -2.0129,11.1045 0,3.8092 0.6726,7.4469 2.0129,10.9033 1.4108,3.4565 3.3819,6.4901 5.9213,9.1001 2.5394,2.61 5.6116,4.6882 9.2091,6.2401 3.5975,1.4813 7.6167,2.2225 12.0607,2.2225 6.2075,0 11.5335,-1.3453 15.9775,-4.0258 4.5146,-2.751 7.7925,-6.2348 9.8382,-10.4672 l -12.1614,-3.3884 c -0.917,2.2573 -2.6522,4.0912 -5.1917,5.502 -2.4689,1.3402 -5.1126,2.0129 -7.9342,2.0129 -1.834,0 -3.591,-0.3213 -5.2839,-0.9561 -1.6929,-0.6349 -3.214,-1.5518 -4.5542,-2.751 -1.3403,-1.1992 -2.4329,-2.6432 -3.2794,-4.3361 -0.8465,-1.693 -1.3736,-3.634 -1.5852,-5.8207 h 42.85 c 0.1411,-0.5643 0.2097,-1.2671 0.2097,-2.1136 0.071,-0.8465 0.109,-1.7333 0.109,-2.6503 0,-3.7386 -0.6727,-7.3378 -2.0129,-10.7943 -1.2698,-3.4564 -3.1723,-6.4901 -5.7117,-9.1 -2.4689,-2.6099 -5.5025,-4.6881 -9.1,-6.24 -3.527,-1.5519 -7.5462,-2.3232 -12.0608,-2.3232 z m 67.7179,0.2097 c -1.4814,0 -3.0325,0.3128 -4.6549,0.9477 -1.5518,0.5643 -3.103,1.4126 -4.6549,2.5413 -1.5518,1.1286 -3.0042,2.4656 -4.3445,4.0173 -1.3402,1.4814 -2.5015,3.1781 -3.489,5.0827 v -11.851 h -13.0169 v 55.4474 h 14.1827 v -33.5402 c 1.4813,-3.1743 3.9109,-5.5437 7.2968,-7.0956 3.3859,-1.6224 7.2378,-2.4624 11.5407,-2.5329 v -12.9161 c -0.3527,-0.071 -0.7426,-0.1006 -1.1658,-0.1006 z m -486.3037,0.1006 c -3.9502,0 -7.5795,0.7797 -10.8949,2.3316 -3.3153,1.5519 -6.2118,3.6301 -8.6807,6.24 -2.3983,2.6099 -4.3008,5.6436 -5.7116,9.1 -1.3403,3.4565 -2.0129,7.1243 -2.0129,11.0039 0,3.8092 0.6726,7.4469 2.0129,10.9033 1.3402,3.4565 3.2126,6.4901 5.611,9.1001 2.4689,2.61 5.3569,4.6882 8.6723,6.2401 3.3154,1.4813 6.9832,2.2225 11.0039,2.2225 4.0208,0 7.6886,-0.7412 11.004,-2.2225 3.3859,-1.5519 6.2823,-3.6301 8.6807,-6.2401 2.4689,-2.61 4.3714,-5.6436 5.7116,-9.1001 1.3403,-3.4564 2.0129,-7.0941 2.0129,-10.9033 0,-3.8796 -0.7111,-7.5474 -2.1219,-11.0039 -1.3403,-3.4564 -3.2428,-6.4901 -5.7117,-9.1 -2.3983,-2.6099 -5.2864,-4.6881 -8.6723,-6.24 -3.3153,-1.5519 -6.953,-2.3316 -10.9033,-2.3316 z m 128.986,0 c -3.9502,0 -7.618,0.7797 -11.0039,2.3316 -3.3859,1.4814 -6.3125,3.5295 -8.7814,6.1393 -2.3983,2.5394 -4.3092,5.5346 -5.72,8.9911 -1.3403,3.3858 -2.0046,7.0152 -2.0046,10.8948 0,3.9503 0.6643,7.6566 2.0046,11.113 1.4108,3.4564 3.3518,6.5286 5.8207,9.2091 2.4688,2.61 5.3653,4.6882 8.6807,6.2401 3.3859,1.4813 7.0838,2.2225 11.1045,2.2225 2.6806,0 5.2557,-0.3212 7.7246,-0.9561 2.4689,-0.7054 4.7312,-1.6525 6.7768,-2.8516 2.0457,-1.2697 3.8411,-2.7222 5.3929,-4.3446 1.5519,-1.6929 2.7517,-3.5569 3.5981,-5.6026 l -6.24,-1.6942 c -0.6349,1.4814 -1.5518,2.8568 -2.751,4.1265 -1.1991,1.1991 -2.5445,2.2232 -4.0258,3.0697 -1.4813,0.8464 -3.1011,1.5191 -4.8646,2.0129 -1.7634,0.4938 -3.5288,0.7381 -5.2923,0.7381 -2.6805,0 -5.2171,-0.497 -7.6155,-1.4846 -2.3278,-1.0581 -4.406,-2.5021 -6.24,-4.3361 -1.8341,-1.834 -3.3551,-3.9892 -4.5542,-6.4581 -1.1287,-2.5394 -1.8013,-5.2903 -2.0129,-8.253 h 47.1944 c 0.071,-0.2116 0.1091,-0.5931 0.1091,-1.1574 v -1.6942 c 0,-3.8092 -0.6727,-7.4084 -2.013,-10.7942 -1.3402,-3.386 -3.2126,-6.3811 -5.611,-8.9911 -2.3983,-2.6098 -5.2864,-4.6579 -8.6723,-6.1393 -3.3153,-1.5519 -6.9831,-2.3316 -11.0039,-2.3316 z m 197.5425,0.6374 v 55.4474 h 14.1827 v -55.4474 z m -197.4419,4.9736 c 2.6806,0 5.1871,0.497 7.5149,1.4844 2.3984,0.9876 4.4766,2.363 6.2401,4.1265 1.834,1.7635 3.3165,3.8802 4.4451,6.3491 1.1992,2.3983 1.9104,5.0722 2.122,8.0349 h -40.5267 c 0.2116,-2.8922 0.8458,-5.566 1.9039,-8.0349 1.1286,-2.4689 2.5727,-4.5856 4.3361,-6.3491 1.834,-1.7635 3.9508,-3.1389 6.3491,-4.1265 2.3984,-0.9874 4.935,-1.4844 7.6155,-1.4844 z m -129.0866,0.738 c 2.7511,0 5.3263,0.604 7.7246,1.8032 2.4689,1.1286 4.6241,2.7183 6.4581,4.7639 1.834,1.9751 3.2781,4.3361 4.3362,7.0871 1.0581,2.6805 1.5851,5.5385 1.5851,8.5717 0,3.1037 -0.527,5.9918 -1.5851,8.6723 -1.0581,2.6805 -2.5022,5.0415 -4.3362,7.0872 -1.834,1.9751 -3.9892,3.5647 -6.4581,4.7639 -2.3983,1.1286 -4.9735,1.6942 -7.7246,1.6942 -2.751,0 -5.3563,-0.5656 -7.8252,-1.6942 -2.3983,-1.1287 -4.515,-2.6798 -6.349,-4.6549 -1.7635,-2.0456 -3.1775,-4.3766 -4.2356,-6.9865 -1.0581,-2.6805 -1.5851,-5.5686 -1.5851,-8.6723 0,-3.1038 0.527,-6.0002 1.5851,-8.6807 1.0581,-2.751 2.5022,-5.1422 4.3362,-7.1878 1.834,-2.0456 3.9507,-3.6353 6.3491,-4.7639 2.3983,-1.1992 4.9735,-1.8032 7.7245,-1.8032 z m 62.7443,0 c 1.9046,0 3.8456,0.3514 5.8207,1.0567 1.9751,0.7054 3.809,1.6994 5.5019,2.9691 1.7635,1.2697 3.3147,2.7522 4.6549,4.4452 1.3403,1.6224 2.3643,3.3793 3.0697,5.2839 v 17.0427 c -0.2822,1.9046 -1.0535,3.7 -2.3232,5.3929 -1.1992,1.6224 -2.6817,3.0664 -4.4452,4.3362 -1.7635,1.1992 -3.6744,2.1546 -5.7201,2.86 -1.9751,0.7054 -3.8391,1.0568 -5.6026,1.0568 -2.8921,0 -5.6129,-0.6041 -8.1523,-1.8033 -2.4689,-1.1992 -4.6157,-2.7804 -6.4497,-4.7555 -1.834,-2.0456 -3.2781,-4.4066 -4.3362,-7.0871 -1.058,-2.6805 -1.5935,-5.5084 -1.5935,-8.4711 0,-2.8215 0.4585,-5.5724 1.3755,-8.2529 0.917,-2.6805 2.2238,-5.0415 3.9168,-7.0871 1.7635,-2.1162 3.8501,-3.8129 6.2484,-5.0826 2.3984,-1.2698 5.0722,-1.9039 8.0349,-1.9039 z m 355.6319,3.5981 c 3.8796,0 7.1576,1.2683 9.8381,3.8077 2.751,2.4689 4.3022,5.7853 4.6548,9.9472 h -28.7763 c 0.1411,-2.0457 0.5996,-3.9097 1.3756,-5.6027 0.8464,-1.6929 1.9006,-3.1453 3.1703,-4.3445 1.2697,-1.1992 2.7137,-2.1161 4.3361,-2.751 1.693,-0.7054 3.4968,-1.0567 5.4014,-1.0567 z m -197.23217,1.8032 c 2.9626,0 5.7821,0.9856 8.4626,2.9606 2.751,1.9752 4.7607,4.5888 6.0304,7.8337 v 13.2265 c -0.4938,1.2697 -1.1966,2.461 -2.1136,3.5897 -0.917,1.1286 -1.9712,2.1226 -3.1703,2.969 -1.1992,0.8465 -2.506,1.5108 -3.9168,2.0046 -1.4108,0.4937 -2.8934,0.7464 -4.4452,0.7464 -2.1867,0 -4.1963,-0.4284 -6.0304,-1.2748 -1.834,-0.8465 -3.4537,-2.0078 -4.8645,-3.4891 -1.3403,-1.4813 -2.4028,-3.2081 -3.1788,-5.1832 -0.7759,-1.9752 -1.1658,-4.0918 -1.1658,-6.3491 0,-2.1867 0.3213,-4.3034 0.9562,-6.3491 0.7054,-2.0456 1.6909,-3.841 2.9606,-5.3929 1.2697,-1.6224 2.7907,-2.8992 4.5542,-3.8162 1.7636,-0.9875 3.7346,-1.4761 5.9214,-1.4761 z"
       style="fill:#dd4814;fill-opacity:1;stroke-width:0.377891" />
    <g
       aria-label="for"
       id="text399"
       style="font-weight:bold;font-size:82.5001px;font-family:Raleway;-inkscape-font-specification:'Raleway Bold';fill:#dd4814;stroke-width:6.87497">
      <path
         d="m 201.76606,410.45056 v -38.52754 h -5.94 v -4.45501 h 5.94 v -1.155 q 0,-7.92001 3.38251,-12.37502 3.3825,-4.5375 9.24001,-4.5375 2.5575,0 4.95,0.7425 2.39251,0.7425 4.12501,1.98 l -1.7325,4.04251 q -1.15501,-0.9075 -2.88751,-1.40251 -1.65,-0.495 -3.3825,-0.495 -3.96001,0 -6.02251,3.05251 -2.0625,3.0525 -2.0625,8.82751 v 1.32 h 11.88001 v 4.45501 h -11.88001 v 38.52754 z"
         id="path703" />
      <path
         d="m 243.09868,411.27556 q -4.7025,0 -8.58001,-1.7325 -3.8775,-1.815 -6.76501,-4.86751 -2.805,-3.0525 -4.3725,-7.095 -1.5675,-4.04251 -1.5675,-8.49751 0,-4.53751 1.5675,-8.58001 1.65,-4.04251 4.455,-7.09501 2.88751,-3.05251 6.76501,-4.86751 3.87751,-1.815 8.49751,-1.815 4.62001,0 8.49751,1.815 3.96001,1.815 6.76501,4.86751 2.8875,3.0525 4.45501,7.09501 1.65,4.0425 1.65,8.58001 0,4.455 -1.5675,8.49751 -1.56751,4.0425 -4.45501,7.095 -2.805,3.05251 -6.76501,4.86751 -3.8775,1.7325 -8.58001,1.7325 z m -15.59252,-22.11002 q 0,3.63 1.23751,6.765 1.2375,3.05251 3.3,5.44501 2.145,2.31 4.95001,3.63 2.8875,1.32001 6.105,1.32001 3.21751,0 6.02251,-1.32001 2.8875,-1.4025 5.03251,-3.7125 2.145,-2.3925 3.3825,-5.52751 1.2375,-3.135 1.2375,-6.765 0,-3.54751 -1.2375,-6.68251 -1.2375,-3.21751 -3.3825,-5.52751 -2.14501,-2.3925 -5.03251,-3.7125 -2.805,-1.40251 -6.02251,-1.40251 -3.2175,0 -6.0225,1.40251 -2.80501,1.32 -4.95001,3.7125 -2.145,2.3925 -3.3825,5.61001 -1.23751,3.135 -1.23751,6.76501 z"
         id="path705" />
      <path
         d="m 295.32119,372.41802 q -5.69251,0.165 -9.90001,3.135 -4.20751,2.97 -5.94001,8.16751 v 26.73003 h -5.61001 v -42.98255 h 5.28001 v 10.31251 q 2.3925,-4.95 6.43501,-7.75501 4.0425,-2.805 8.66251,-2.805 0.66,0 1.0725,0.0825 z"
         id="path707" />
    </g>
    <g
       aria-label="4"
       id="text403"
       style="font-weight:bold;font-size:55.3969px;font-family:Raleway;-inkscape-font-specification:'Raleway Bold';fill:#dd4814;stroke-width:4.61638">
      <path
         d="m 960.4626,375.24671 v -8.25414 h -16.17589 v -6.59223 l 18.55796,-23.82067 h 5.04112 v 23.76527 h 4.87493 v 6.64763 h -4.87493 v 8.25414 z m -8.75271,-14.90177 h 9.58367 v -12.5197 z"
         id="path716" />
    </g>
  </g>
  <g
     aria-label="Bonfire2"
     transform="matrix(22.334626,0,0,22.334626,-21467.898,-2303.5656)"
     id="text341-5-6"
     style="font-family:Raleway;-inkscape-font-specification:Raleway;white-space:pre;fill:#dd4814">
    <path
       d="m 958.83733,112.06843 q 0,0.48 -0.192,0.888 -0.192,0.396 -0.516,0.696 -0.324,0.288 -0.756,0.456 -0.432,0.156 -0.924,0.156 h -4.02 v -8.52 h 4.104 q 0.444,0 0.804,0.192 0.36,0.192 0.612,0.504 0.252,0.3 0.384,0.696 0.144,0.384 0.144,0.78 0,0.648 -0.324,1.188 -0.324,0.528 -0.9,0.792 0.732,0.216 1.152,0.804 0.432,0.588 0.432,1.368 z m -0.84,-0.144 q 0,-0.312 -0.108,-0.6 -0.108,-0.3 -0.312,-0.516 -0.192,-0.228 -0.468,-0.36 -0.264,-0.144 -0.576,-0.144 h -3.264 v 3.228 h 3.18 q 0.324,0 0.6,-0.132 0.288,-0.132 0.492,-0.348 0.216,-0.228 0.336,-0.516 0.12,-0.3 0.12,-0.612 z m -4.728,-5.448 v 3.144 h 2.928 q 0.312,0 0.576,-0.132 0.276,-0.132 0.468,-0.348 0.192,-0.216 0.3,-0.492 0.108,-0.288 0.108,-0.6 0,-0.324 -0.108,-0.612 -0.096,-0.288 -0.288,-0.492 -0.18,-0.216 -0.432,-0.336 -0.252,-0.132 -0.552,-0.132 z"
       id="path650" />
    <path
       d="m 962.91733,114.38443 q -0.684,0 -1.248,-0.252 -0.564,-0.264 -0.984,-0.708 -0.408,-0.444 -0.636,-1.032 -0.228,-0.588 -0.228,-1.236 0,-0.66 0.228,-1.248 0.24,-0.588 0.648,-1.032 0.42,-0.444 0.984,-0.708 0.564,-0.264 1.236,-0.264 0.672,0 1.236,0.264 0.576,0.264 0.984,0.708 0.42,0.444 0.648,1.032 0.24,0.588 0.24,1.248 0,0.648 -0.228,1.236 -0.228,0.588 -0.648,1.032 -0.408,0.444 -0.984,0.708 -0.564,0.252 -1.248,0.252 z m -2.268,-3.216 q 0,0.528 0.18,0.984 0.18,0.444 0.48,0.792 0.312,0.336 0.72,0.528 0.42,0.192 0.888,0.192 0.468,0 0.876,-0.192 0.42,-0.204 0.732,-0.54 0.312,-0.348 0.492,-0.804 0.18,-0.456 0.18,-0.984 0,-0.516 -0.18,-0.972 -0.18,-0.468 -0.492,-0.804 -0.312,-0.348 -0.732,-0.54 -0.408,-0.204 -0.876,-0.204 -0.468,0 -0.876,0.204 -0.408,0.192 -0.72,0.54 -0.312,0.348 -0.492,0.816 -0.18,0.456 -0.18,0.984 z"
       id="path652" />
    <path
       d="m 972.64932,114.26443 h -0.816 v -3.492 q 0,-1.116 -0.336,-1.62 -0.324,-0.504 -1.008,-0.504 -0.36,0 -0.72,0.132 -0.36,0.132 -0.672,0.372 -0.3,0.24 -0.54,0.576 -0.24,0.324 -0.348,0.708 v 3.828 h -0.816 v -6.252 h 0.744 v 1.416 q 0.384,-0.684 1.092,-1.104 0.72,-0.42 1.56,-0.42 0.516,0 0.876,0.192 0.36,0.192 0.576,0.54 0.216,0.348 0.312,0.852 0.096,0.504 0.096,1.116 z"
       id="path654" />
    <path
       d="m 974.62934,108.66043 h -0.864 v -0.648 h 0.864 v -0.168 q 0,-0.432 0.12,-0.876 0.132,-0.444 0.396,-0.792 0.276,-0.348 0.696,-0.564 0.42,-0.228 0.996,-0.228 0.324,0 0.612,0.06 0.288,0.06 0.516,0.144 0.24,0.084 0.408,0.192 0.168,0.096 0.276,0.168 l -0.372,0.588 q -0.204,-0.18 -0.576,-0.3 -0.372,-0.132 -0.816,-0.132 -0.384,0 -0.66,0.156 -0.264,0.156 -0.444,0.396 -0.168,0.24 -0.252,0.552 -0.084,0.312 -0.084,0.612 v 0.192 h 3.132 v 6.252 h -0.816 v -5.604 h -2.316 v 5.604 h -0.816 z"
       id="path656" />
    <path
       d="m 983.49733,108.73243 q -0.828,0.024 -1.44,0.456 -0.612,0.432 -0.864,1.188 v 3.888 h -0.816 v -6.252 h 0.768 v 1.5 q 0.348,-0.72 0.936,-1.128 0.588,-0.408 1.26,-0.408 0.096,0 0.156,0.012 z"
       id="path658" />
    <path
       d="m 986.97734,114.38443 q -0.684,0 -1.26,-0.252 -0.564,-0.264 -0.984,-0.708 -0.42,-0.456 -0.66,-1.044 -0.228,-0.588 -0.228,-1.26 0,-0.66 0.228,-1.236 0.24,-0.588 0.648,-1.02 0.42,-0.444 0.996,-0.696 0.576,-0.264 1.248,-0.264 0.684,0 1.248,0.264 0.576,0.252 0.984,0.696 0.408,0.444 0.636,1.02 0.228,0.576 0.228,1.224 0,0.096 0,0.192 0,0.096 -0.012,0.132 h -5.352 q 0.036,0.504 0.228,0.936 0.204,0.42 0.516,0.732 0.312,0.312 0.708,0.492 0.408,0.168 0.864,0.168 0.3,0 0.6,-0.084 0.3,-0.084 0.552,-0.228 0.252,-0.144 0.456,-0.348 0.204,-0.216 0.312,-0.468 l 0.708,0.192 q -0.144,0.348 -0.408,0.636 -0.264,0.276 -0.612,0.492 -0.348,0.204 -0.768,0.312 -0.42,0.12 -0.876,0.12 z m 2.304,-3.576 q -0.036,-0.504 -0.24,-0.912 -0.192,-0.42 -0.504,-0.72 -0.3,-0.3 -0.708,-0.468 -0.396,-0.168 -0.852,-0.168 -0.456,0 -0.864,0.168 -0.408,0.168 -0.72,0.468 -0.3,0.3 -0.492,0.72 -0.18,0.42 -0.216,0.912 z"
       id="path660" />
    <path
       d="m 990.94934,114.26443 q 0,-0.408 0.072,-0.816 0.072,-0.42 0.276,-0.828 0.216,-0.408 0.6,-0.78 0.396,-0.384 1.044,-0.72 0.348,-0.18 0.72,-0.348 0.384,-0.18 0.696,-0.396 0.324,-0.216 0.528,-0.48 0.204,-0.276 0.204,-0.636 0,-0.228 -0.108,-0.444 -0.096,-0.228 -0.3,-0.396 -0.192,-0.18 -0.492,-0.288 -0.288,-0.108 -0.684,-0.108 -0.396,0 -0.708,0.12 -0.312,0.108 -0.552,0.264 -0.228,0.156 -0.396,0.336 -0.168,0.168 -0.252,0.276 l -0.54,-0.588 q 0.072,-0.072 0.276,-0.264 0.204,-0.192 0.528,-0.384 0.336,-0.192 0.78,-0.336 0.444,-0.156 0.996,-0.156 0.552,0 0.984,0.156 0.432,0.144 0.732,0.408 0.3,0.264 0.456,0.612 0.156,0.336 0.156,0.708 0,0.492 -0.216,0.852 -0.216,0.36 -0.54,0.624 -0.312,0.264 -0.672,0.456 -0.36,0.18 -0.648,0.312 -0.384,0.168 -0.756,0.384 -0.36,0.204 -0.648,0.456 -0.288,0.252 -0.48,0.564 -0.18,0.312 -0.18,0.696 h 4.272 v 0.744 z"
       id="path662" />
  </g>
</svg>
